<mxfile host="app.diagrams.net" modified="2022-11-21T20:48:11.444Z" agent="5.0 (Windows NT 10.0; Win64; x64) AppleWebKit/537.36 (KHTML, like Gecko) Chrome/107.0.0.0 Safari/537.36" etag="Lz-E1HNqQI93nHeyb2lA" version="20.5.3" type="github">
  <diagram id="Dv2m4bRg06dAzyRW52GT" name="Page-1">
    <mxGraphModel dx="782" dy="706" grid="1" gridSize="10" guides="1" tooltips="1" connect="1" arrows="1" fold="1" page="1" pageScale="1" pageWidth="850" pageHeight="1100" math="0" shadow="0">
      <root>
        <mxCell id="0" />
        <mxCell id="1" parent="0" />
        <mxCell id="V_LgyFV98cW61jW46AYb-23" value="" style="shape=ext;double=1;rounded=0;whiteSpace=wrap;html=1;glass=1;" parent="1" vertex="1">
          <mxGeometry x="220" y="120" width="310" height="170" as="geometry" />
        </mxCell>
        <mxCell id="V_LgyFV98cW61jW46AYb-3" value="Data" style="shape=parallelogram;html=1;strokeWidth=2;perimeter=parallelogramPerimeter;whiteSpace=wrap;rounded=1;arcSize=12;size=0.23;" parent="1" vertex="1">
          <mxGeometry x="80" y="120" width="100" height="60" as="geometry" />
        </mxCell>
        <mxCell id="V_LgyFV98cW61jW46AYb-4" value="Data" style="shape=parallelogram;html=1;strokeWidth=2;perimeter=parallelogramPerimeter;whiteSpace=wrap;rounded=1;arcSize=12;size=0.23;" parent="1" vertex="1">
          <mxGeometry x="80" y="240" width="100" height="60" as="geometry" />
        </mxCell>
        <mxCell id="V_LgyFV98cW61jW46AYb-5" value="Collate" style="verticalLabelPosition=bottom;verticalAlign=top;html=1;shape=mxgraph.flowchart.collate;" parent="1" vertex="1">
          <mxGeometry x="240" y="160" width="100" height="100" as="geometry" />
        </mxCell>
        <mxCell id="V_LgyFV98cW61jW46AYb-6" value="Sort" style="verticalLabelPosition=bottom;verticalAlign=top;html=1;shape=mxgraph.flowchart.sort;" parent="1" vertex="1">
          <mxGeometry x="410" y="160" width="100" height="100" as="geometry" />
        </mxCell>
        <mxCell id="V_LgyFV98cW61jW46AYb-7" value="Data Store" style="strokeWidth=2;html=1;shape=mxgraph.flowchart.database;whiteSpace=wrap;" parent="1" vertex="1">
          <mxGeometry x="400" y="320" width="120" height="110" as="geometry" />
        </mxCell>
        <mxCell id="V_LgyFV98cW61jW46AYb-8" value="&lt;br&gt;Extractor" style="strokeWidth=2;html=1;shape=mxgraph.flowchart.extract_or_measurement;whiteSpace=wrap;" parent="1" vertex="1">
          <mxGeometry x="570" y="368" width="95" height="60" as="geometry" />
        </mxCell>
        <mxCell id="V_LgyFV98cW61jW46AYb-9" value="Report File" style="strokeWidth=2;html=1;shape=mxgraph.flowchart.document2;whiteSpace=wrap;size=0.25;" parent="1" vertex="1">
          <mxGeometry x="720" y="368" width="100" height="60" as="geometry" />
        </mxCell>
        <mxCell id="V_LgyFV98cW61jW46AYb-10" value="Display Report" style="strokeWidth=2;html=1;shape=mxgraph.flowchart.display;whiteSpace=wrap;" parent="1" vertex="1">
          <mxGeometry x="402" y="480" width="100" height="60" as="geometry" />
        </mxCell>
        <mxCell id="V_LgyFV98cW61jW46AYb-11" value="User" style="shape=umlActor;verticalLabelPosition=bottom;verticalAlign=top;outlineConnect=0;html=1;fontColor=default;" parent="1" vertex="1">
          <mxGeometry x="540" y="480" width="30" height="60" as="geometry" />
        </mxCell>
        <mxCell id="V_LgyFV98cW61jW46AYb-12" value="" style="endArrow=classic;html=1;rounded=0;exitX=1;exitY=0.5;exitDx=0;exitDy=0;" parent="1" source="V_LgyFV98cW61jW46AYb-4" edge="1">
          <mxGeometry width="50" height="50" relative="1" as="geometry">
            <mxPoint x="160" y="300" as="sourcePoint" />
            <mxPoint x="270" y="230" as="targetPoint" />
          </mxGeometry>
        </mxCell>
        <mxCell id="V_LgyFV98cW61jW46AYb-13" value="" style="endArrow=classic;html=1;rounded=0;entryX=0.28;entryY=0.3;entryDx=0;entryDy=0;entryPerimeter=0;" parent="1" source="V_LgyFV98cW61jW46AYb-3" target="V_LgyFV98cW61jW46AYb-5" edge="1">
          <mxGeometry width="50" height="50" relative="1" as="geometry">
            <mxPoint x="160" y="200" as="sourcePoint" />
            <mxPoint x="210" y="150" as="targetPoint" />
          </mxGeometry>
        </mxCell>
        <mxCell id="V_LgyFV98cW61jW46AYb-16" value="" style="endArrow=classic;html=1;rounded=0;entryX=0;entryY=0.5;entryDx=0;entryDy=0;entryPerimeter=0;exitX=0.51;exitY=0.49;exitDx=0;exitDy=0;exitPerimeter=0;" parent="1" source="V_LgyFV98cW61jW46AYb-5" target="V_LgyFV98cW61jW46AYb-6" edge="1">
          <mxGeometry width="50" height="50" relative="1" as="geometry">
            <mxPoint x="290" y="240" as="sourcePoint" />
            <mxPoint x="340" y="190" as="targetPoint" />
          </mxGeometry>
        </mxCell>
        <mxCell id="V_LgyFV98cW61jW46AYb-17" value="" style="endArrow=classic;html=1;rounded=0;exitX=0.5;exitY=1;exitDx=0;exitDy=0;exitPerimeter=0;entryX=0.5;entryY=0;entryDx=0;entryDy=0;entryPerimeter=0;" parent="1" source="V_LgyFV98cW61jW46AYb-6" target="V_LgyFV98cW61jW46AYb-7" edge="1">
          <mxGeometry width="50" height="50" relative="1" as="geometry">
            <mxPoint x="430" y="310" as="sourcePoint" />
            <mxPoint x="480" y="260" as="targetPoint" />
          </mxGeometry>
        </mxCell>
        <mxCell id="V_LgyFV98cW61jW46AYb-18" value="" style="endArrow=classic;html=1;rounded=0;entryX=0.58;entryY=-0.033;entryDx=0;entryDy=0;entryPerimeter=0;exitX=0.5;exitY=1;exitDx=0;exitDy=0;exitPerimeter=0;" parent="1" source="V_LgyFV98cW61jW46AYb-7" target="V_LgyFV98cW61jW46AYb-10" edge="1">
          <mxGeometry width="50" height="50" relative="1" as="geometry">
            <mxPoint x="390" y="480" as="sourcePoint" />
            <mxPoint x="440" y="430" as="targetPoint" />
          </mxGeometry>
        </mxCell>
        <mxCell id="V_LgyFV98cW61jW46AYb-19" style="edgeStyle=orthogonalEdgeStyle;rounded=0;orthogonalLoop=1;jettySize=auto;html=1;exitX=0.5;exitY=1;exitDx=0;exitDy=0;exitPerimeter=0;" parent="1" source="V_LgyFV98cW61jW46AYb-10" target="V_LgyFV98cW61jW46AYb-10" edge="1">
          <mxGeometry relative="1" as="geometry" />
        </mxCell>
        <mxCell id="V_LgyFV98cW61jW46AYb-20" value="" style="endArrow=classic;html=1;rounded=0;entryX=0.22;entryY=0.5;entryDx=0;entryDy=0;entryPerimeter=0;" parent="1" edge="1">
          <mxGeometry width="50" height="50" relative="1" as="geometry">
            <mxPoint x="521" y="399" as="sourcePoint" />
            <mxPoint x="591.9000000000001" y="399" as="targetPoint" />
          </mxGeometry>
        </mxCell>
        <mxCell id="V_LgyFV98cW61jW46AYb-21" value="" style="endArrow=classic;html=1;rounded=0;entryX=0;entryY=0.5;entryDx=0;entryDy=0;entryPerimeter=0;exitX=0.78;exitY=0.5;exitDx=0;exitDy=0;exitPerimeter=0;" parent="1" source="V_LgyFV98cW61jW46AYb-8" target="V_LgyFV98cW61jW46AYb-9" edge="1">
          <mxGeometry width="50" height="50" relative="1" as="geometry">
            <mxPoint x="660" y="420" as="sourcePoint" />
            <mxPoint x="710" y="370" as="targetPoint" />
          </mxGeometry>
        </mxCell>
      </root>
    </mxGraphModel>
  </diagram>
</mxfile>
